<svg xmlns="http://www.w3.org/2000/svg" viewBox="0 0 512 512">
  <path d="M501.8 188.47h-6.83C488.3 154.68 454.15 95.2 439.03 70a27.01 27.01 0 1 0-42.3-22.27c0 9.23 4.67 17.4 11.76 22.27-15.12 25.2-49.28 84.68-55.93 118.47h-6.84a10.2 10.2 0 0 0-10.2 10.2c0 48.65 39.59 88.24 88.24 88.24 48.66 0 88.24-39.59 88.24-88.24a10.2 10.2 0 0 0-10.2-10.2zM423.76 41.1a6.63 6.63 0 1 1-.02 13.27 6.63 6.63 0 0 1 .02-13.27zm-.02 43.1c17.26 29.14 43.92 77.66 50.47 104.27H373.34c6.19-24.91 30.17-70.26 50.4-104.27zm.02 182.3c-33.94 0-62.14-25.05-67.08-57.63h134.16c-4.94 32.58-33.14 57.64-67.08 57.64z"/>
  <path d="M346.78 432.67h-26.96v-25.9a10.2 10.2 0 0 0-10.2-10.2h-25.9v-284.9a38.6 38.6 0 0 0 11.46-25.56l43.13-9.28a10.2 10.2 0 0 0-4.3-19.94l-43.22 9.3a38.73 38.73 0 0 0-34.26-20.73 38.75 38.75 0 0 0-38.63 36.41l-107.84 23.21a27 27 0 0 0-48.84 15.91 27 27 0 0 0 11.75 22.28c-15.12 25.2-49.28 84.68-55.94 118.46H10.2A10.2 10.2 0 0 0 0 271.93c0 48.66 39.58 88.24 88.24 88.24 48.65 0 88.24-39.58 88.24-88.24a10.2 10.2 0 0 0-10.2-10.2h-6.84c-6.65-33.78-40.8-93.27-55.93-118.46a27.05 27.05 0 0 0 11.47-18.38l107.14-23.06a38.94 38.94 0 0 0 7.22 9.84v284.9h-25.9a10.2 10.2 0 0 0-10.2 10.2v25.9h-26.96a10.2 10.2 0 0 0-10.2 10.2v38.23a10.2 10.2 0 0 0 10.2 10.2h180.5a10.2 10.2 0 0 0 10.2-10.2v-38.23a10.2 10.2 0 0 0-10.2-10.2zM88.24 114.37a6.63 6.63 0 1 1-.02 13.26 6.63 6.63 0 0 1 .02-13.26zm0 225.4c-33.94 0-62.14-25.05-67.08-57.64h134.16c-4.94 32.59-33.14 57.64-67.08 57.64zm50.45-78.04H37.82c6.19-24.91 30.17-70.26 50.4-104.26 17.26 29.13 43.91 77.65 50.47 104.26zM256.53 65.85c10.1 0 18.3 8.21 18.3 18.3s-8.2 18.31-18.3 18.31-18.3-8.21-18.3-18.3 8.2-18.3 18.3-18.3zm6.79 56.4v274.32h-13.58V122.25a38.66 38.66 0 0 0 13.58 0zm-49.68 294.72h85.78v15.7h-85.78v-15.7zm122.94 53.93h-160.1v-17.83h160.1v17.83zM385.42 56.89a10.2 10.2 0 0 0-12.12-7.83l-7.43 1.6a10.2 10.2 0 0 0 4.3 19.94l7.42-1.6a10.2 10.2 0 0 0 7.83-12.11z"/>
</svg>
