<svg xmlns="http://www.w3.org/2000/svg" viewBox="0 0 512 512">
  <path d="M405.97 219.01c-1.07-78.06-64.9-141.24-143.22-141.24a142.8 142.8 0 0 0-94.5 35.68 143.35 143.35 0 0 0-45.54 78.1h-1.37C54.44 191.55 0 245.98 0 312.89s54.43 121.34 121.34 121.34h283.04c59.34 0 107.62-48.28 107.62-107.62 0-58.8-47.42-106.75-106.03-107.6zm-1.59 193.38H121.34c-54.87 0-99.5-44.63-99.5-99.5s44.63-99.5 99.5-99.5c2.92 0 6.01.15 9.44.48 5.83.56 11.06-3.6 11.85-9.4a121.45 121.45 0 0 1 40.07-74.64 120.97 120.97 0 0 1 80.05-30.22c66.94 0 121.4 54.45 121.4 121.39 0 2.4-.19 4.9-.38 7.52l-.08 1.12a10.92 10.92 0 0 0 11.99 11.63c2.9-.29 5.83-.44 8.7-.44 47.3 0 85.78 38.48 85.78 85.78s-38.48 85.78-85.78 85.78z"/>
  <path d="M262.75 129.09c-45.65 0-84.74 34.12-90.9 79.37a10.92 10.92 0 0 0 21.63 2.95c4.7-34.48 34.48-60.48 69.27-60.48a10.92 10.92 0 0 0 0-21.84z"/>
</svg>
