<svg xmlns="http://www.w3.org/2000/svg" viewBox="0 0 512 512">
  <path d="M321.36 63.8a145.49 145.49 0 0 0-168.81 27.07c-51.9 51.9-57.1 134.64-12.09 192.47a8.06 8.06 0 0 0 11.33 1.42 8.07 8.07 0 0 0 1.41-11.33c-40.02-51.42-35.4-125 10.76-171.15A129.38 129.38 0 0 1 314.08 78.2a8.07 8.07 0 1 0 7.28-14.4zM385.79 128.24a8.07 8.07 0 0 0-14.4 7.27 129.39 129.39 0 0 1-24.1 150.1c-46.16 46.15-119.74 50.77-171.16 10.76a8.07 8.07 0 0 0-9.9 12.73 145 145 0 0 0 89.26 30.59 145.7 145.7 0 0 0 103.2-42.67 145.5 145.5 0 0 0 27.1-168.78zM364.94 97.5a147.94 147.94 0 0 0-12.88-12.87 8.07 8.07 0 1 0-10.69 12.09 132.46 132.46 0 0 1 11.48 11.47 8.05 8.05 0 0 0 11.39.7 8.07 8.07 0 0 0 .7-11.38z"/>
  <path d="M446.07 208.41a27.38 27.38 0 0 0 0-28.62l-10.62-17.4a11.36 11.36 0 0 1-1.52-7.67l3.16-20.1a27.37 27.37 0 0 0-10.98-26.5l-16.45-11.97a11.36 11.36 0 0 1-4.36-6.5l-4.79-19.8a27.37 27.37 0 0 0-20.24-20.25l-19.8-4.8a11.35 11.35 0 0 1-6.5-4.35l-11.98-16.46a27.36 27.36 0 0 0-26.5-10.98l-20.1 3.16c-2.66.42-5.38-.12-7.67-1.52L270.3 4.04a27.38 27.38 0 0 0-28.62 0l-17.4 10.61a11.36 11.36 0 0 1-7.68 1.52l-20.1-3.16a27.37 27.37 0 0 0-26.5 10.98l-11.96 16.45a11.36 11.36 0 0 1-6.51 4.36l-19.8 4.79a27.38 27.38 0 0 0-20.25 20.24l-4.8 19.8a11.35 11.35 0 0 1-4.35 6.51L85.9 108.11a27.37 27.37 0 0 0-10.98 26.5l3.16 20.1c.42 2.66-.12 5.38-1.52 7.67L65.93 179.8a27.38 27.38 0 0 0 0 28.61l10.62 17.4c1.4 2.3 1.94 5.03 1.52 7.68l-3.16 20.1a27.37 27.37 0 0 0 10.98 26.5l16.45 11.97a11.35 11.35 0 0 1 4.35 6.5l4.8 19.8a27.37 27.37 0 0 0 20.24 20.25l8.27 2-55.95 124.81a8.07 8.07 0 0 0 8.31 11.32l45.03-5.39 25.93 37.2a8.07 8.07 0 0 0 13.98-1.32l57.15-127.48 7.24 4.42a27.44 27.44 0 0 0 28.62 0l7.5-4.58 57.22 127.64a8.07 8.07 0 0 0 13.98 1.32l25.93-37.2 45.02 5.39a8.07 8.07 0 0 0 8.32-11.31L372.3 340.54l7.96-1.92a27.38 27.38 0 0 0 20.25-20.25l4.79-19.8a11.35 11.35 0 0 1 4.35-6.5l16.46-11.97a27.37 27.37 0 0 0 10.98-26.5l-3.16-20.11c-.42-2.65.12-5.38 1.52-7.67l10.62-17.41zM168.4 487.63l-20.56-29.48a8.06 8.06 0 0 0-7.57-3.4l-35.68 4.27 50.98-113.72c.93.69 1.77 1.5 2.45 2.46L170 364.2a27.73 27.73 0 0 0 3.81 4.24l-26.83 59.86a8.07 8.07 0 0 0 14.72 6.6l26.74-59.64c2.63.36 5.34.35 8.06-.08l20.1-3.16c1.21-.19 2.43-.17 3.61.02l-51.8 115.58zm239.32-28.6l-35.68-4.27a8.06 8.06 0 0 0-7.57 3.4l-20.56 29.47L292.1 372c1.09-.15 2.2-.15 3.3.02l20.1 3.17c2.83.44 5.65.43 8.38.02l26.76 59.7a8.07 8.07 0 1 0 14.72-6.6l-26.93-60.1c1.3-1.2 2.5-2.54 3.57-4l11.96-16.46a11.33 11.33 0 0 1 2.72-2.64l51.06 113.9zM432.3 200l-10.62 17.4a27.52 27.52 0 0 0-3.68 18.59l3.16 20.1a11.3 11.3 0 0 1-4.53 10.94l-16.46 11.97a27.51 27.51 0 0 0-10.55 15.76l-4.79 19.8a11.3 11.3 0 0 1-8.36 8.36l-19.8 4.8a27.51 27.51 0 0 0-15.76 10.54l-11.96 16.45a11.3 11.3 0 0 1-10.94 4.53l-20.1-3.16a27.52 27.52 0 0 0-18.59 3.68l-17.4 10.62a11.3 11.3 0 0 1-11.82 0l-17.4-10.62a27.5 27.5 0 0 0-18.59-3.68l-20.1 3.16a11.3 11.3 0 0 1-10.95-4.53l-11.97-16.46a27.51 27.51 0 0 0-15.76-10.54l-19.8-4.8a11.3 11.3 0 0 1-8.35-8.35l-4.8-19.8A27.51 27.51 0 0 0 111.83 279l-16.45-11.97a11.3 11.3 0 0 1-4.53-10.94L94 236a27.51 27.51 0 0 0-3.68-18.58L79.7 200a11.3 11.3 0 0 1 0-11.81l10.62-17.42A27.51 27.51 0 0 0 94 152.21l-3.16-20.11a11.3 11.3 0 0 1 4.53-10.94l16.46-11.97a27.51 27.51 0 0 0 10.54-15.76l4.8-19.8c1-4.15 4.2-7.35 8.35-8.36l19.8-4.8a27.5 27.5 0 0 0 15.76-10.54l11.97-16.45A11.3 11.3 0 0 1 194 28.95l20.1 3.16a27.5 27.5 0 0 0 18.58-3.68L250.1 17.8a11.3 11.3 0 0 1 11.81 0l17.41 10.62a27.5 27.5 0 0 0 18.58 3.68L318 28.95a11.3 11.3 0 0 1 10.94 4.53l11.97 16.46a27.51 27.51 0 0 0 15.76 10.54l19.8 4.8c4.15 1 7.36 4.2 8.36 8.36l4.8 19.8a27.51 27.51 0 0 0 10.54 15.76l16.45 11.96a11.3 11.3 0 0 1 4.53 10.94L418 152.2a27.51 27.51 0 0 0 3.68 18.59l10.62 17.4a11.3 11.3 0 0 1 0 11.82z"/>
  <path d="M350.42 169a14.44 14.44 0 0 0-12.15-9.98l-48.55-5.75-20.48-44.4A14.44 14.44 0 0 0 256 100.4a14.44 14.44 0 0 0-13.24 8.47l-20.48 44.4-48.55 5.75a14.43 14.43 0 0 0-12.15 9.98 14.44 14.44 0 0 0 3.97 15.2l35.9 33.2-9.54 47.95a14.43 14.43 0 0 0 5.74 14.64 14.51 14.51 0 0 0 15.69.93L256 257.04l42.66 23.88a14.43 14.43 0 0 0 15.69-.93c4.66-3.38 6.85-9 5.73-14.64l-9.53-47.95 35.9-33.2a14.44 14.44 0 0 0 3.97-15.2zm-54.14 39.62a8.07 8.07 0 0 0-2.43 7.5l9.75 49.07-43.66-24.44a8.06 8.06 0 0 0-7.88 0l-43.66 24.44 9.75-49.07a8.06 8.06 0 0 0-2.44-7.5l-36.73-33.97 49.69-5.9a8.07 8.07 0 0 0 6.37-4.62L256 118.7l20.95 45.43a8.07 8.07 0 0 0 6.38 4.63l49.68 5.89-36.73 33.97z"/>
</svg>
