<svg xmlns="http://www.w3.org/2000/svg" viewBox="0 0 316.66 316.66">
  <g fill="#222220">
    <path d="M257.6 183.07a70.43 70.43 0 0 0-43.23-23.55l-38.49-6.03V86.3a28.96 28.96 0 0 0-28.93-28.93h-.43a28.96 28.96 0 0 0-28.93 28.93V194.2l-39.8-17.05c-7.99-3.42-17.1-2.61-24.36 2.18a25.73 25.73 0 0 0-11.6 21.53v.37c0 7.36 3.15 14.39 8.66 19.28l67.1 59.67v28.99a7.5 7.5 0 1 0 15 0V276.8a7.5 7.5 0 0 0-2.52-5.6l-69.62-61.91a10.8 10.8 0 0 1-3.62-8.07v-.36c0-3.7 1.77-6.99 4.85-9.02a10.64 10.64 0 0 1 10.2-.91l50.25 21.53a7.42 7.42 0 0 0 3.7.57l.25-.03.46-.07.4-.1.3-.08c.15-.04.29-.1.44-.15l.24-.09c.14-.05.28-.12.41-.19l.25-.11.36-.21c.09-.06.18-.1.27-.17l.29-.2.3-.23.23-.2.32-.3.2-.2c.1-.1.2-.2.29-.32l.2-.27.23-.3c.1-.14.18-.28.26-.42l.12-.2a7.47 7.47 0 0 0 .94-3.62V86.3c0-7.68 6.24-13.93 13.93-13.93h.43c7.68 0 13.93 6.25 13.93 13.93v72.03c0 .28.02.55.05.82a7.5 7.5 0 0 0 6.29 8.15l44.88 7.04.1.02a55.68 55.68 0 0 1 47.63 54.86v.77c0 12.69-3.1 25.35-8.96 36.6l-20.34 39.1a7.5 7.5 0 1 0 13.3 6.92l20.34-39.09A94.66 94.66 0 0 0 274.82 230v-.77a70.41 70.41 0 0 0-17.23-46.16zM146.74 37.79a7.5 7.5 0 0 0 7.5-7.5V7.5a7.5 7.5 0 1 0-15 0v22.79a7.5 7.5 0 0 0 7.5 7.5z"/>
    <path d="M193.19 98.9a7.5 7.5 0 0 0 7.5 7.5h22.79a7.5 7.5 0 1 0 0-15h-22.8a7.5 7.5 0 0 0-7.5 7.5zM194.74 56.47c1.92 0 3.84-.73 5.3-2.2l16.12-16.11a7.5 7.5 0 0 0-10.6-10.61l-16.12 16.11a7.5 7.5 0 0 0 5.3 12.8zM87.52 54.27a7.48 7.48 0 0 0 10.6 0 7.5 7.5 0 0 0 0-10.6l-16.1-16.12a7.5 7.5 0 0 0-10.61 10.6l16.11 16.12zM64.42 106.4H87.2a7.5 7.5 0 1 0 0-15H64.4a7.5 7.5 0 1 0 0 15z"/>
  </g>
</svg>
