<svg xmlns="http://www.w3.org/2000/svg" viewBox="0 0 512 512">
  <path d="M199.53 312.4a7.5 7.5 0 0 0-7.5 7.5v10.22a7.5 7.5 0 0 0 15 0V319.9a7.5 7.5 0 0 0-7.5-7.5zM312.47 312.4a7.5 7.5 0 0 0-7.5 7.5v10.22a7.5 7.5 0 0 0 15 0V319.9a7.5 7.5 0 0 0-7.5-7.5zM274.87 323.76a7.5 7.5 0 0 0-10.58.7c-2 2.3-5.02 3.6-8.29 3.6s-6.29-1.3-8.29-3.6a7.5 7.5 0 1 0-11.3 9.88c4.86 5.55 12 8.73 19.59 8.73s14.73-3.18 19.58-8.73a7.5 7.5 0 0 0-.7-10.58z"/>
  <path d="M487.93 367.8h-.2c0-23.85-.15-47.7-.15-71.57 0-88.54-60.73-170.72-141.12-204.53-56.31-23.68-121.33-24.77-178-1.66a230.16 230.16 0 0 0-55.2 32.11 7.5 7.5 0 0 0 9.26 11.8 215.37 215.37 0 0 1 45.55-27.44l20.2 35.67a178.18 178.18 0 0 0-74.7 59.07l-32.65-24.34a220.44 220.44 0 0 1 20.2-23.77 7.5 7.5 0 1 0-10.72-10.5 234.14 234.14 0 0 0-25.95 31.57l-.08.1a233.6 233.6 0 0 0-40.1 130.42v63.07h-.2A24.1 24.1 0 0 0 0 391.86v22.76a24.1 24.1 0 0 0 24.07 24.07h365.27a7.5 7.5 0 0 0 0-15H24.07c-5 0-9.07-4.07-9.07-9.07v-22.76c0-5 4.07-9.07 9.07-9.07h463.86c5 0 9.07 4.07 9.07 9.07v22.76c0 5-4.07 9.07-9.07 9.07h-68.6a7.5 7.5 0 0 0 0 15h68.6A24.1 24.1 0 0 0 512 414.62v-22.76a24.1 24.1 0 0 0-24.07-24.07zm-78.68-216.33a220.17 220.17 0 0 1 21.83 25.44l-32.66 24.34a178.18 178.18 0 0 0-74.68-59.07l20.19-35.68a215.85 215.85 0 0 1 65.32 44.97zm-227.14-50.62A216.06 216.06 0 0 1 256 88c25.51 0 50.33 4.32 73.9 12.85l-20.43 36.08a175.21 175.21 0 0 0-53.47-8.3 175.2 175.2 0 0 0-53.47 8.3l-20.42-36.08zM79.89 367.8H39.27v-62.6l40.63 6v56.6zm-40.14-77.7a215.19 215.19 0 0 1 32.7-100.78l32.8 24.45a175.01 175.01 0 0 0-25.15 82.3l-40.35-5.97zm338.96 77.7H131.84c-1.5-20.26 3.5-36.17 14.94-47.34 4.96-4.85 10.92-8.7 17.23-12.77 7.02-4.53 14.28-9.21 20.52-15.59 4.54-4.64 7.78-9.72 9.63-15.1 1.44-4.17 2.35-8.01 3.24-11.73 1.63-6.82 3.03-12.7 7.36-18.52 5.73-7.7 13.85-14.57 24.13-20.43 17.23-9.83 36.85-14.99 54.88-14.35a87.44 87.44 0 0 0-5.27 14.6c-5.08 19.7-.83 36.09 12.29 47.36a7.5 7.5 0 0 0 12.36-5.1c0-.08.68-7.71 4.82-15.02 4.22-7.45 10.29-11.74 18.47-13-.3 4.8-.21 11.1 1.09 18.19 2.63 14.33 10.88 35 35.24 52.01 18.8 13.14 19.49 37.09 15.94 56.8zm38.4 0h-23.18c5.05-31.4-2.67-55.17-22.57-69.08-38.04-26.59-29.41-62.3-29.04-63.77a7.5 7.5 0 0 0-6.77-9.42 57.89 57.89 0 0 0-3.67-.12c-21.57 0-33.4 12.51-39.16 25.15-5.42-18.13 9.03-40.48 9.2-40.75a7.5 7.5 0 0 0-4.97-11.54 95.8 95.8 0 0 0-16.2-1.35c-19.73 0-40.79 5.81-59.3 16.37-12.08 6.89-21.75 15.14-28.72 24.5-6.17 8.29-8.08 16.28-9.92 24-.8 3.37-1.63 6.85-2.83 10.32-1.13 3.27-3.2 6.46-6.17 9.5-5.07 5.18-11.32 9.21-17.93 13.48-6.66 4.3-13.54 8.74-19.59 14.64-14.54 14.21-21.08 33.72-19.49 58.07H94.9v-63.06c0-31.66 9.22-62.33 26.66-88.7a162.75 162.75 0 0 1 80.03-62.95h.01a160.11 160.11 0 0 1 54.4-9.46 160.1 160.1 0 0 1 54.4 9.46 162.75 162.75 0 0 1 80.03 62.95 160.23 160.23 0 0 1 26.67 88.7v63.06zm-10.37-154.04l32.8-24.44a215.18 215.18 0 0 1 32.7 100.78l-40.35 5.98a175.02 175.02 0 0 0-25.15-82.31zm66 154.04H432.1v-56.6l40.63-6v62.6z"/>
</svg>
