<svg data-name="Layer 1" xmlns="http://www.w3.org/2000/svg" viewBox="0 0 510.03 511.12">
  <path d="M63.9 156.79c-1.48 11.52-3.53 22.76-4.18 34.08-.72 12.56-6.68 23.1-11.1 34.3-2.3 5.84-4.9 11.61-6.71 17.61-3.18 10.51-2.24 21 1.46 31.26a67.13 67.13 0 0 0 4 9.64c9.66 17.54 13.05 36.65 14.52 56.3.2 2.8.84 5.65 1.26 8.32.86 5.56 6.4 18.7 10.71 23.89s23.32 17.66 34.74 26.45a24.65 24.65 0 0 1 4.45 4.62c6.54 8.58 12.86 17.32 19.49 25.84 9.24 11.87 21.57 18.34 36.42 20.1 9.55 1.14 19.12 2.08 28.65 3.36a37.05 37.05 0 0 1 9.03 2.5c12.7 5.2 25.33 10.6 38.37 16.08 6.88 2.62 17.5 1.52 20.53-.06 14-5.93 28.1-11.65 41.94-17.95a16.28 16.28 0 0 0 7.21-7.4c1.63-3.42.21-7.24-2.9-9.84a9.67 9.67 0 0 0-10.7-1.5l-30.6 13.11c-1.5.64-3.03 1.2-5.01 1.99a152.06 152.06 0 0 1-20.54-.17c-1.5-.5-2.87-.9-4.18-1.42a51.29 51.29 0 0 1-5.92-2.57c-19.44-10.8-40.74-14.26-62.5-15.91-10.55-.8-19.38-5.12-25.15-14-13.48-20.76-30.27-38.05-51.23-51.25a27.06 27.06 0 0 1-3.22-2.93c-2.61-3.13-8.5-12.1-10.26-17.1-.7-5.69-1.73-10.69-1.84-15.7-.45-19.94-7.7-37.86-16.17-55.37-5.62-11.6-5.94-22.89-.04-34.39 1.51-2.94 2.4-6.22 3.99-9.1 8.48-15.33 11.14-32.1 12.47-49.23.3-3.93.94-7.84 1.56-12.82 1.09-4.93 8.03-14.78 9.97-17.3 8.9-6.67 17.18-12.48 24.99-18.87a104.4 104.4 0 0 0 13.26-13.23 143.3 143.3 0 0 0 12.79-17.15c8.08-13.04 19.83-18.8 34.78-19.64 9.08-.52 18.3-1.23 27.11-3.28 7.48-1.74 14.5-5.49 21.68-8.44 5.8-2.38 11.53-4.9 17.8-7.57 5.57-.8 17.43 0 20.4.42a37.14 37.14 0 0 1 3.72 1.06 95.37 95.37 0 0 1 10.06 4.28c16.2 8.82 33.71 12.43 51.91 13.6a104.26 104.26 0 0 1 12.8 1.8 29.97 29.97 0 0 1 17.85 10.95 39.44 39.44 0 0 1 3.02 3.95 152.66 152.66 0 0 0 48.07 48.13c1.63 1.03 3.07 2.36 5.21 4.03 3.44 2.92 8.36 12.77 9.96 17.27 1.57 12.8 2.92 24.48 4.5 36.13a37.13 37.13 0 0 0 2.4 9.05c3.96 9.66 8.1 19.26 12.32 28.8 4.3 9.69 4.34 19.26-.1 28.9-1.72 3.76-2.96 7.77-4.94 11.4-8.48 15.5-11.37 32.35-12.62 49.68-.28 3.92-.96 7.8-1.57 12.62-.65 1.54-6.6 13.55-9.9 17.33l-31.08 23.3c-3.89 2.91-5.36 6.8-4.01 11.41 1.18 4.02 4.24 6.71 8.37 6.69a14.91 14.91 0 0 0 8.18-2.74c12.31-8.97 24.4-18.26 37.15-27.88 3.45-2.07 9.58-12.63 9.87-17.34 1.5-11.71 3.57-23.12 4.25-34.62.74-12.4 6.8-22.73 11.03-33.81 2.6-6.8 5.65-13.51 7.4-20.53 2.69-10.8.88-21.43-3.45-31.62-2.8-6.56-5.26-13.3-8.5-19.62-4.42-8.64-5.89-17.83-6.86-27.29-1.02-10.03-2.54-20.01-3.89-30.42-1.3-5.64-6.18-13.56-9.87-17.5-12.15-9.21-24.14-18.07-35.82-27.3-2.92-2.3-4.96-5.75-7.26-8.78-5.23-6.87-10.27-13.88-15.57-20.7-9.23-11.88-21.5-18.44-36.36-20.21-9.55-1.14-19.14-2.01-28.65-3.37a46.54 46.54 0 0 1-10.89-3.18c-12.1-4.95-24.1-10.12-36.57-15.4-5.42-1.58-15.64-1.18-20.48 0-13.78 5.83-27.23 12.36-41.27 17.12-8 2.72-16.99 2.48-25.5 3.75-6.88 1.03-13.88 1.71-20.52 3.63a48 48 0 0 0-27.32 20.51 150.73 150.73 0 0 1-45.33 45.37c-3.72 2.4-6.9 5.66-10.68 8.81-3.7 3.56-8.9 11.41-10.4 17.06z"/>
  <path d="M343.58 16.57c-81.04-29.47-158.5-19.26-231 27.65-5.42 3.51-7.13 7.76-5.45 12.57a9.6 9.6 0 0 0 10.52 6.53 15.3 15.3 0 0 0 5.86-2.47 234.1 234.1 0 0 1 106.34-38.99c4.45-.5 8.93-.73 13.4-1.05.45-.04 17.48-.52 22.14-.37C346 26.24 408.24 62.7 453.72 129.5c2.12 4.06 7.92 13.74 10.03 17.37 35.27 72.78 35.27 144.93.02 217.95a452.03 452.03 0 0 0-10.06 17.3c-45.32 66.74-107.5 103.22-188.17 109.07a958.6 958.6 0 0 0-20.53-.33 232.83 232.83 0 0 1-95.86-25.05C107 444.57 74.06 410.58 57.2 381.83c-2.35-3.49-7.16-13.19-9.82-17.43-33.64-58.4-38.57-147.13-.35-217.35 2.48-4.82 7.95-14.65 9.82-17.4 1.48-2.3 2.77-4.22 3.98-6.18 3.6-5.83 2.63-11.65-2.44-14.84-4.9-3.07-10.44-1.67-14.16 3.8-15.13 22.28-27.06 46.2-33.75 72.28-4.27 16.65-6.34 33.86-9.4 50.82A278.18 278.18 0 0 0 .2 271.8c.7 18.67 2.42 19.39 3.98 29.02C20.3 400.3 102.17 485.4 201 505.2c11.51 2.3 23.26 3.43 34.9 5.13 1.12.16 2.21.53 3.32.8h31.87c9.34-1.28 18.72-2.32 28.01-3.87 99.46-16.67 181.35-93.9 204.13-192.41 29.3-126.67-38.15-254.1-159.64-298.27z"/>
  <path d="M81.96 92.3a9.95 9.95 0 1 1 9.86-9.75 9.94 9.94 0 0 1-9.86 9.74zM353.01 369.66a32.33 32.33 0 1 1-32.58-32.33A32.3 32.3 0 0 1 353 369.66zm-19.98.66a12.2 12.2 0 0 0-11.49-13 12.36 12.36 0 0 0-13.2 11.87 12.62 12.62 0 0 0 11.87 12.84 12.25 12.25 0 0 0 12.82-11.7zM287.45 255.54a32.33 32.33 0 1 1-32.6-32.34 32.3 32.3 0 0 1 32.6 32.34zm-19.98.66a12.2 12.2 0 0 0-11.5-13 12.36 12.36 0 0 0-13.2 11.87 12.62 12.62 0 0 0 11.87 12.83 12.25 12.25 0 0 0 12.83-11.7zM369.94 432.37a9.87 9.87 0 0 1-9.7 9.84 10.12 10.12 0 0 1-10.05-10.12 9.97 9.97 0 0 1 10.32-9.77 9.72 9.72 0 0 1 9.43 10.05zM353.01 142.18a31.95 31.95 0 0 1-32.26 32.16 32.43 32.43 0 0 1-32.43-32.7c.2-17.66 15.16-32.34 32.68-32.07a32.38 32.38 0 0 1 32.01 32.6zm-19.96.02a12.37 12.37 0 0 0-12-12.62 12.55 12.55 0 0 0-12.7 12.53 12.32 12.32 0 0 0 12.36 12.25 12.05 12.05 0 0 0 12.34-12.16zM91.67 255.73a32.04 32.04 0 0 1 32.22-32.21 32.33 32.33 0 1 1-32.22 32.2zm32.05-12.22a12.33 12.33 0 0 0 .15 24.66 12.33 12.33 0 1 0-.15-24.66zM189.48 174.34a32.01 32.01 0 0 1-32.2-32.23 32.32 32.32 0 1 1 32.2 32.23zm.14-19.99a12.29 12.29 0 0 0 12.31-12.26 12.69 12.69 0 0 0-12.24-12.52 12.38 12.38 0 0 0-12.45 12.65 12.15 12.15 0 0 0 12.38 12.13zM157.28 369.47a31.93 31.93 0 0 1 32.27-32.14 32.38 32.38 0 1 1-32.27 32.14zm19.96.03a12.3 12.3 0 0 0 12.04 12.56 12.51 12.51 0 0 0 12.65-12.54 12.32 12.32 0 0 0-12.38-12.22 12.08 12.08 0 0 0-12.31 12.2zM418.62 256a32.05 32.05 0 0 1-32.27 32.16 32.34 32.34 0 0 1-.21-64.68A32.2 32.2 0 0 1 418.62 256zm-19.94-.25a12.12 12.12 0 0 0-12.27-12.24 12.33 12.33 0 1 0 .17 24.66 12.11 12.11 0 0 0 12.1-12.42z"/>
</svg>
